<svg viewBox="0 0 27 27" xmlns="http://www.w3.org/2000/svg"><path d="m6.593 11.519l-6.593 8.481h13.937c0 0 .0001-.005.003-.014.0001-.005.003-.011.005-.018.002-.007.003-.014.005-.023.008-.035.016-.081.021-.129.002-.024.003-.049.002-.075-.002-.027-.005-.056-.018-.091-.012-.035-.034-.075-.07-.122-.036-.047-.088-.1-.158-.156-.139-.112-.351-.233-.616-.343-.265-.11-.58-.21-.924-.299-.344-.089-.718-.166-1.107-.237-.389-.071-.794-.135-1.206-.2-.412-.066-.831-.13-1.258-.216-.214-.044-.429-.093-.656-.165-.114-.037-.23-.078-.355-.139-.062-.03-.127-.065-.194-.111-.067-.046-.138-.102-.204-.18-.065-.076-.124-.177-.15-.285-.006-.027-.012-.051-.016-.088-.002-.017-.003-.034-.004-.051v-.016-.008c0-.001.0001.017 0-.023v-.007l.003-.027c.002-.018.004-.036.007-.053.025-.143.086-.284.171-.395.041-.057.089-.105.136-.15.048-.043.098-.082.148-.115.1-.067.201-.117.299-.157.196-.08.383-.126.561-.161.178-.035.347-.056.509-.072.323-.031.614-.039.871-.042.257-.002.479.0001.662.004.183.003.325.005.423.003.049-.0001.086-.003.111-.006.012-.0001.022-.002.028-.004.006-.0001.001-.002.001-.002l-3.351-4.311c-.286-.367-.749-.367-1.035 0"/><path d="m17.886 8.276c-.286-.368-.749-.368-1.035 0l-5.873 7.554c0 0-.003.0001-.009.003-.006.002-.015.006-.027.009-.024.008-.06.018-.108.029-.095.022-.236.05-.415.084-.178.035-.395.076-.639.131-.244.054-.518.12-.803.21-.142.045-.287.096-.427.156-.14.06-.278.13-.391.21-.113.079-.016.32.612.334.461.001.793.044 1.207.054 7.331.179 6.785 2.471 6.78 2.736-.002.077-.001.213-.001.213h10.251l-9.114-11.724"/></svg>