<svg viewBox="0 0 27 27" version="1.1" xmlns="http://www.w3.org/2000/svg"><path d="m11.1462 16.3226c1.1919 0 2.158-.9703 2.158-2.1672 0-1.1968-.9661-2.1671-2.158-2.1671-1.1919 0-2.1582.9703-2.1582 2.1671 0 1.1969.9663 2.1672 2.1582 2.1672m7.3743-5.9874h1.9019c.3168 0 .5761.2605.5761.5788v.8259c0 .3183-.2593.5787-.5761.5787h-1.9019c-.3168 0-.5763-.2604-.5763-.5787v-.8259c0-.3183.2595-.5788.5763-.5788m-10.125-2.0231h11.2089c1.8677 0 3.3956 1.5345 3.3956 3.4098v4.8682c0 1.8756-1.5279 3.4099-3.3956 3.4099h-11.2089c-1.8674 0-3.3955-1.5343-3.3955-3.4099v-4.8682c0-1.8753 1.5281-3.4098 3.3955-3.4098m1.3047-2.3121h2.4902c.3094 0 .5623.2542.5623.5647v.8062c0 .3106-.2529.5646-.5623.5646h-2.4902c-.3094 0-.5623-.254-.5623-.5646v-.8062c0-.3105.2529-.5647.5623-.5647m1.446 11.5505c1.8671 0 3.3808-1.5201 3.3808-3.3951 0-1.875-1.5137-3.395-3.3808-3.395-1.8672 0-3.3808 1.52-3.3808 3.395 0 1.875 1.5136 3.3951 3.3808 3.3951m0 .6403c2.2192 0 4.0183-1.8069 4.0183-4.0354 0-2.2284-1.7991-4.0353-4.0183-4.0353-2.2193 0-4.0184 1.8069-4.0184 4.0353 0 2.2285 1.7991 4.0354 4.0184 4.0354"/></svg>