<svg viewBox="0 0 27 27" version="1.1" xmlns="http://www.w3.org/2000/svg"><path d="m8.268 11.5c0 1.3783-1.0149 2.4954-2.2679 2.4954-1.2522 0-2.2681-1.1171-2.2681-2.4954 0-1.3783 1.0159-2.4954 2.2681-2.4954 1.253 0 2.2679 1.1171 2.2679 2.4954"/><path d="m4.7305 8.2791l-2.2654-.6682.6069 2.4935c.3228-.8155.918-1.4702 1.6585-1.8253"/><path d="m6.0001 7.9881c.4155 0 .811.09 1.1747.2498l-1.1747-2.2379-1.1739 2.2369c.3638-.1588.7592-.2488 1.1739-.2488"/><path d="m11 11.5l-2.0341-1.2913c.1448.4002.2266.8347.2266 1.2913 0 .4566-.0818.8921-.2266 1.2922l2.0341-1.2922"/><path d="m8.9499 10.1599l.6335-2.6016-2.3638.6968c.7813.3571 1.4066 1.0453 1.7303 1.9048"/><path d="m2.8075 11.5c0-.4556.0821-.8911.2266-1.2913l-2.0341 1.2913 2.0341 1.2922c-.1445-.4001-.2266-.8356-.2266-1.2922"/><path d="m7.2695 14.7209l2.2664.6681-.6073-2.4925c-.3226.8146-.9176 1.4703-1.6591 1.8244"/><path d="m3.0505 12.841l-.6338 2.6007 2.3643-.6968c-.7812-.3561-1.4062-1.0443-1.7305-1.9039"/><path d="m6.0001 15.0119c-.4147 0-.8101-.089-1.1734-.2488l1.1734 2.2369 1.1741-2.2369c-.364.1588-.7591.2488-1.1741.2488"/><path d="m22.7126 6.1608c.0177-.0389.0351-.0796.0473-.123.1193-.4291-.1152-.8795-.5256-1.0051-.4103-.1257-.84.1221-.9595.5512-.0118.0434-.0173.0859-.0228.1292-3.3192-.5928-6.6768 1.5662-7.8917 4.87.4331-.0832.8902-.0672 1.3415.0708 1.2466.3814 2.0645 1.5529 2.1085 2.8429.6331-.9627 1.7515-1.4829 2.8836-1.2892-.2646.9504-1.1507 4.0464-1.8016 6.3265-.6594-.1168-1.3428-.1911-2.0452-.2008-3.8275-.054-7.1531 1.4838-8.8471 3.6667h17.6941c-.8267-1.0653-3.0052-2.5332-5.7736-3.2455.7024-2.4643 1.6679-5.8478 1.7611-6.1823.8824.5291 1.4371 1.5042 1.473 2.5589.6978-1.0627 1.9889-1.5891 3.2356-1.2078.5788.177 1.0658.5247 1.426.976.7737-3.5278-.9523-7.3378-4.1036-8.7385"/></svg>