<svg viewBox="0 0 27 27" version="1.1" xmlns="http://www.w3.org/2000/svg"><path d="m13.6548 9.0766c1.4481 0 2.6219 1.9807 2.6219 4.4235 0 .2488-.015.4912-.0386.7288l1.1346 1.148c.0441-.6145.0694-1.2399.0694-1.8768 0-4.4284-1.0999-8.3769-2.8185-10.9583-.4812-.7224-1.4565-.7224-1.9376 0-1.0085 1.5147-1.8012 3.5024-2.2865 5.779l1.6575 1.6774c.4427-.5756.9958-.9216 1.5978-.9216"/><path d="m21.3216 19.808l-1.223-.4039-12.5664-12.7151-.3988-1.2376-2.6912-2.7229-1.4422 1.459 2.6911 2.7229 1.2232.4039 3.1329 3.1702c-.1149.9721-.1798 1.979-.1798 3.0156 0 4.428 1.0999 8.3768 2.8186 10.9582.4811.7223 1.4564.7223 1.9376 0 1.1607-1.7434 2.0361-4.1128 2.4839-6.8301l2.3731 2.4011.3991 1.2378 2.6782 2.7097 1.4421-1.4591-2.6784-2.7097m-7.6668-1.8846c-1.4482 0-2.622-1.9807-2.622-4.4233 0-.6379.0831-1.241.2276-1.7882l4.4582 4.511c-.4797 1.0341-1.2251 1.7005-2.0638 1.7005"/></svg>