<svg viewBox="0 0 27 27" version="1.1" xmlns="http://www.w3.org/2000/svg"><path d="m21.5386 10.7238l-3.99 1.0534c-.2775.075-.5307.033-.7538-.1562l-1.8302-1.782c-.0676-.0781-.9266-.7392-1.4897.0068-.0145-.0566-.5411-1.3416-.5573-1.4377.2065-.1325.5725-.2244.5725-.6637v-.7159c0-.0144.0011.014 0 0l10.6842-6.4461-.3577-.5824-10.4681 6.3552c-.1601-.2008-.4407-.3341-.7602-.3341-.498 0-.9019.3235-.9019.5579v.6205l-10.6864 6.6524 10.714-5.9299-.0276-.1776c0 .399.2752.7224.7733.7224.0006 0 .0012 0 .0018 0 .0208.0834.6987 1.8699.7259 1.9451-.0218.3843-.0362.5626.2027.7357l.134.1409c.0104.0253.0205.0507.0309.0758.1339.3288.1321.3127 1.9199 4.4303l.4892.1254c0 0-1.6379-3.8556-1.6558-3.907l1.9824 1.803c.3136.1548.5721.1871.949.1503.7818-.0762 1.123-.1291 2.3074-.3305-.7313 1.3095-2.3198 2.5943-3.2572 2.567-.0757.0845 0 0-.0921.0188l-3.7069-.8697c-.5099-.085-1.1217-.1801-1.8697.5528l-3.7128 3.9861c-1.4143 1.5527.6197 2.7716 1.7123 1.7085l3.4032-3.4122 2.6469.9349c1.3075.593 4.3285 1.4524 6.6916-1.2067 1.5634-1.7593 2.1095-2.6217 2.3565-3.1429.247-.5212.9144-2.2295.3781-3.3477-.5156-1.075-1.7897-.8774-2.5584-.7009"/><path d="m23.722 10.0972c1.2587 0 2.278-.9992 2.278-2.2376 0-1.236-1.0186-2.2333-2.278-2.2333-1.26 0-2.2841.9985-2.2841 2.2333 0 1.2365 1.0251 2.2376 2.2841 2.2376"/></svg>