<svg viewBox="0 0 27 27" xmlns="http://www.w3.org/2000/svg"><path d="m13.655 9.08c1.448 0 2.622 1.981 2.622 4.424 0 .249-.015.491-.039.729l1.135 1.148c.044-.614.069-1.24.069-1.877 0-4.428-1.1-8.377-2.819-10.958-.481-.722-1.457-.722-1.938 0-1.01 1.515-1.801 3.502-2.287 5.779l1.658 1.677c.443-.576.996-.922 1.598-.922"/><path d="m21.322 19.808l-1.223-.404-12.566-12.715-.399-1.238-2.691-2.723-1.442 1.459 2.691 2.723 1.223.404 3.133 3.17c-.115.972-.18 1.979-.18 3.02 0 4.428 1.1 8.377 2.819 10.958.481.722 1.456.722 1.938 0 1.161-1.743 2.036-4.113 2.484-6.83l2.373 2.401.399 1.238 2.678 2.71 1.442-1.459-2.678-2.71m-7.667-1.885c-1.448 0-2.622-1.981-2.622-4.423 0-.638.083-1.241.228-1.788l4.458 4.511c-.48 1.034-1.225 1.701-2.064 1.701"/></svg>