<svg viewBox="0 0 27 27" xmlns="http://www.w3.org/2000/svg"><path d="m2 23l1.964-4.38.917-.57 1.284-3.521 2.582-1.983.862-2.557 2.199-.989v-5.487h1.015v5.484l1.619 2.291-4 1.052-.381.455-.091 1.171.387.533 6.986 1.741.177.403-2.73 1.319-5.65-.724-.265.036-1.269.541-.291.323-.453 1.509-.135.45.442.17 5.966 2.733h-11.132m12.317-13.331l1.385 1.633-.289.784-4.361 1.146-.029.381 6.809 1.697.345.291.476 1.081-.247.663-3.309 1.599-.287.046-5.663-.726-.921.392-.249.83 9.729 3.512h8.293l-1.789-2.79-1.057-.879-2.639-4.512-2.308-1.163-1.086-2.725-2.803-1.261m-1.084-6.148v2.089c1.594-.686 2.334-.589 3.982-.045 2.588.855 5.422.024 6.519-2.554-1.204.861-2.358 1.48-3.825 1.153-1.27-.283-5.347-2.01-6.676-.642"/></svg>