<svg xmlns="http://www.w3.org/2000/svg" width="40" height="40" viewBox="0 0 27 27"><svg xmlns="http://www.w3.org/2000/svg" xmlns:xlink="http://www.w3.org/1999/xlink" height="26.301" width="26.08" viewBox="72 66 69 69" preserveAspectRatio="xMidYMid meet" zoomAndPan="disable" x=".436" y=".349" stroke="#000" fill="#f0e68c" vector-effect="non-scaling-stroke"><path fill="#f8f8ff" stroke="none" d="m72.23 66.23h69v69h-69z"/><path d="m122.98 75.37c.299-.649 3.393-1.28 4.969-1.129 1.577.151 5.611 1.945 6.663 3.614 1.052 1.669 1.592 6.621 2.259 8.02.667 1.398.936 4.794 0 5.308-.936.514-2.961 1.299-3.275.113-.314-1.186-.814-6.341-1.581-8.358-.767-2.02-4.365-6.363-5.76-6.663-1.395-.3-3.574-.254-3.275-.904" fill="#e9a34d" fill-opacity=".3" stroke-width=".16"/><path d="m121.78 74.997c-.847-1.032-4.498-3.118-7.858-4.55-3.36-1.432-16.14-2.178-20.13-.827-3.991 1.35-9.243 5.03-11.339 7.445-2.096 2.419-4.988 6.999-5.687 10.616-.699 3.617-.785 13.474.414 17.509 1.199 4.03 5.082 12.849 5.101 15.579.019 2.73.296 5.889 1.241 6.686.945.797 1.952 1.425 2.895 1.103.943-.322 3.46-1.069 3.722-3.447.262-2.378-2.571-11.856-3.033-14.476-.462-2.62-1.816-6.419-3.171-6.618-1.355-.199-3.433.42-4.55-.276-1.117-.696-2.856-4.03-2.895-5.239-.039-1.207.594-2.781.827-3.585.233-.804 1.236-2.546 1.93-2.482.694.064 2.27 1.762 2.895.689.625-1.073 1.398-6.01 4.136-7.583 2.738-1.574 13.04-4.321 16.544-4.55 3.502-.228 8.826-.843 11.06-.965 2.238-.122 6.175-1.6 6.893-2.619.719-1.02 1.846-1.38 1-2.412" fill="#e9a34d" fill-opacity=".3" stroke-linecap="round"/><path d="m102.54 95.83c-.53-.271-2.8-.999-3.83-1.201-1.029-.202-3.492.15-4.381-.065-.889-.215-3.933.661-3.541 1.363.392.702 2.944 1.451 3.537 1.785.593.334.951.621 1.363.649.412.028 1.127-.109 1.817-.13.69-.021 3.01-.452 3.671-.519.661-.067 1.478-.37 1.687-.617.209-.246.36-.616.26-.779-.1-.163-.054-.216-.584-.487z" fill="none" stroke="#000" stroke-width=".6"/><path d="m101.84 94.63c-.714-.315-2.289-.784-2.986-.909-.696-.125-1.779-.234-2.531-.195-.752.039-2.705.422-3.44.584-.735.162-1.851.525-2.401.844-.551.319-.909.592-1.363 1.038" fill="none" stroke="#000" stroke-linecap="round" stroke-width=".8"/><path d="m117.83 97.23c-.113-.299-.787-.696-1.104-.649s-.768.502-.843.779.193 1.16.519 1.233.692-.551.973-.584.249.029.325 0 .183-.589.13-.779z" stroke-opacity=".5" fill="#000" stroke="#000" fill-opacity=".8" stroke-linecap="round" stroke-width=".2"/><path d="m116.07 95.41c-.517.301-1.221 1.521-1.298 2.01-.076.491.098 1.265.325 1.558.227.292.729.611 1.168.714.439.103 1.784-.366 2.077-.844.293-.478.257-1.619-.065-2.077" fill="none" stroke="#000" stroke-linecap="round" stroke-width=".5"/><path d="m121.81 97.75c-.514.542-1.837 1.45-2.466 1.688-.629.237-1.742.453-2.337.519-.594.066-1.871.066-2.466 0" fill="none" stroke="#000" stroke-linecap="round"/><path d="m114.41 94.5c.746.478 2.308 1.324 3.115 1.688.808.363 3.294 1.218 4.154 1.428" fill="none" stroke="#000" stroke-linecap="round"/><path d="m111.94 80.09c.442.29 1.496.136 1.557 1.428.062 1.292-.501 6.375-.519 8.697-.018 2.322.111 7.87.13 9.866.019 1.996-.027 4.849.13 6.101.157 1.251.474 3.268.259 4.02-.214.755-.723 1.889-.519 2.336.204.447 1.13 1.33.649 1.688-.481.358-2.814.529-3.764.519-.95-.001-2.593-.253-3.505-.519" fill="none" stroke="#000" stroke-linecap="round"/><path d="m123.24 90.22c-.896-.33-2.81-.66-3.764-.649-.955.011-3.282.52-4.154.909" fill="none" stroke="#000" stroke-linecap="round"/><path d="m107.79 89.31c-2.171-.879-7.139-1.711-9.216-1.688-2.078.023-5.444.654-7.139 1.298-1.696.644-1.42.512-2.986 1.428" fill="none" stroke="#000" stroke-linecap="round"/><path fill="none" stroke="#000" d="m122.59 109.56l-9.09 1.04"/><path d="m123.76 76.72c.189 1.647.425 4.915.39 6.62-.036 1.706-.155 4.81-.39 7.01-.235 2.199-.806 7.975-.908 10.644-.102 2.669-.102 6.03 0 8.698" fill="none" stroke="#000" stroke-linecap="round"/><path d="m82.09 86.84c.427-.42 1.337-1.2 1.817-1.558s8.91-2.721 11.942-3.375 11.741-1.227 15.576-2.077 6.905-.866 8.568-2.337 1.973-1.577 1.947-2.337-1.694-1.724-2.337-2.207-6.067-2.372-8.178-2.856-12.833-1.339-16.874-.13-14.511 7.147-15.981 12.07-2.778 9.463-2.856 12.721 1.06 8.825 1.817 11.682 2.724 7.172 3.505 9.606 2.418 8.411 2.986 10.904" transform="matrix(.4103 0 0 .4103-29.2-26.692)" fill="none" stroke="#000" stroke-linecap="round"/><path d="m94.98 94.61c-.15.336-.247 1.05-.371 1.423-.124.373-.095 1.473.186 1.732.281.259.936.444 1.237.495.302.051.737.106 1.114-.062.376-.168 1.274-1.103 1.485-1.608.211-.505.292-1.319.186-1.856" fill="none" stroke="#000" stroke-width=".5"/><path d="m96.65 96.4c.178.056.584-.008.742-.062.159-.054.43-.278.433-.433.003-.155-.145-.451-.309-.557-.164-.106-.67-.216-.928-.062-.258.154-.649.988-.619 1.361.03.373.005.291.186.619" fill="none" stroke="#000" stroke-linecap="round" stroke-width=".2"/><path d="m115.28 108.96c.111-.108.231-.181.495-.371.264-.19 1.675-.328 1.98-.186.304.142.458.286.556.433.098.147.065.081.124.248" fill="none" stroke="#000" stroke-linecap="round" stroke-width=".5"/><path fill="none" stroke="#000" stroke-linejoin="round" stroke-linecap="round" stroke-width=".5" d="m110.39 110.2l1.24.12.19.49"/><path d="m116.7 75.926c-1.469.483-4.498 1.365-5.938 1.732-1.441.367-3.937.981-5.568 1.237-1.63.256-5.57 1-7.423 1.113-1.852.114-5.6.614-7.299 1.361-1.699.747-1.329.538-2.846 1.608" fill="none" stroke="#000" stroke-linecap="round"/><path d="m116.58 74.19c-1.385.309-3.781.869-5.567 1.114-1.786.244-6.66.927-8.66 1.237-2 .31-5.505.986-7.3 1.485-1.794.498-9.876 3.8-11.506 4.701" fill="none" stroke="#000" stroke-linecap="round"/><path d="m114.35 73.2c-1.855-.461-5.644-1.028-7.546-1.237-1.903-.209-5.394-.314-7.671 0-2.277.314-8.07 2.323-10.145 3.464-2.07 1.141-5.089 3.527-6.433 5.072-1.344 1.545-3.382 5-4.083 6.928" fill="none" stroke="#000" stroke-linecap="round"/><path d="m120.66 75.06c-.367-.164-1.11-.473-1.485-.619-.374-.146-.98-.366-1.361-.495" fill="none" stroke="#000" stroke-linecap="round"/><path d="m78.85 89.41c.662-.089 2.097-.433 2.598-.619.502-.186 1.115-.462 1.485-.619.37-.157.497-.211.866-.371" fill="none" stroke="#000" stroke-linecap="round" stroke-width=".5"/><path fill="none" stroke="#000" stroke-linecap="round" stroke-width=".5" d="m79.09 89.78l4.71-.06"/><path d="m78.971 90.53c.689-.18 2.317-.188 2.846-.062.529.126 1.075.35 1.423.495.348.145.719.319 1.052.495" fill="none" stroke="#000" stroke-linecap="round" stroke-width=".5"/><path d="m79.34 91.39c.59-.123 1.95-.097 2.412 0 .463.097.988.289 1.299.433.311.144.775.417 1.052.619" fill="none" stroke="#000" stroke-linecap="round" stroke-width=".5"/><path d="m82.74 92.75c-.203-.119-.463-.254-.866-.371-.403-.117-1.814-.171-2.413.124-.598.295-1.723 1.407-2.041 2.103-.318.696-.606 2.3-.557 3.155.049.854.707 2.766.928 3.525.221.761.934 2.02 1.485 2.351.551.334 1.852.42 2.351.309.499-.11 1.267-.643 1.423-.989.155-.346.181-.978.124-1.299-.057-.322-.449-1.07-.68-1.299" fill="none" stroke="#000" stroke-linecap="round" stroke-width=".8"/><path d="m83.24 96.83c.035-.344-.098-1.01-.247-1.361-.15-.355-.767-1.1-1.237-1.175-.47-.075-1.554.102-2.041.619-.487.516-1.135 2.646-1.175 3.402-.04.756.281 1.935.495 2.413.214.477.815 1.103 1.175 1.299.36.195 1.232.224 1.546 0 .315-.225.085.005.309-.31" fill="none" stroke="#000" stroke-linecap="round" stroke-width=".5"/><path d="m82.13 96.96c-.225-.209-1.076-.361-1.299-.186-.223.176-.399.603-.433.866-.034.263.154.874.309 1.113.156.239.755.575.99.557.235-.019.514-.146.68-.309.166-.163.407-.769.371-1.052-.036-.283-.393-.781-.619-.99z" fill="none" stroke="#000" stroke-linecap="round" stroke-width=".5"/><path d="m78.94 103.39c.406 1.307 1.229 3.912 1.732 5.196.503 1.284 1.622 3.956 1.979 5.196.358 1.24.918 3.555 1.361 4.577.443 1.023 1.288 2.847 1.608 3.836.321.989 1.02 4.408 1.114 5.443" fill="none" stroke="#000" stroke-linecap="round"/><path d="m81.41 104.13c.566 1.282 1.645 3.837 2.103 5.196.458 1.359 1.445 4.515 1.856 5.567.411 1.052.843 1.979 1.113 2.97.27.99.805 3.7.99 4.948.185 1.248.267 1.959.371 3.217" fill="none" stroke="#000" stroke-linecap="round"/><path d="m83.42 102.03c.059 1.01.465 3.101.866 3.959.402.858 1.13 2.01 1.732 3.093.602 1.083 2.479 4.313 3.093 5.567.614 1.253 1.487 3.104 2.351 4.206.864 1.102 3.221 3.353 4.578 4.454 1.357 1.102 5.107 3.199 6.557 3.835 1.45.637 3.709.98 4.949 1.237 1.24.258 4.493-.386 5.072-1.36.58-.975.653-3.066.619-3.836-.034-.769-.18-1.837-.495-2.227-.315-.389-.912-1.016-1.113-1.484-.202-.468-.287-2.051.123-2.227.411-.176 1.664-.5 1.856-.99.192-.489.083-1.199-.247-1.608" fill="none" stroke="#000" stroke-linecap="round"/><path d="m86.27 109.7c.108 1.339.497 4.215.742 5.32.246 1.105.731 2.696.866 3.588.135.891.439 2.632.742 3.464.303.832.542 1.339.99 2.103" fill="none" stroke="#000" stroke-linecap="round"/><path fill="none" stroke="#000" stroke-linecap="round" d="m117.85 75.43l2.35-.493"/><path fill="none" stroke="#000" stroke-linecap="round" d="m117.85 76.55l2.97-1.24"/><path d="m122.69 75.38c.667-.39 2.049-.885 2.907-1.052.859-.166 3.109-.064 3.897.247.789.312 1.636.897 2.475 1.485.838.588 3.03 2.982 3.464 4.02.43 1.039.76 2.677.928 3.588.167.911.399 6.377.309 7.299" fill="none" stroke="#000" stroke-linecap="round"/><path d="m122.94 75.38c1.316-.223 4.063.027 5.32.433 1.257.406 3.543 1.736 4.392 2.846.849 1.109 2.01 4.04 2.289 5.505.28 1.464.327 3.287.123 4.763" fill="none" stroke="#000" stroke-linecap="round"/><path d="m124.11 76.62c.596-.171 1.675-.328 2.474-.186.798.143 2.821 1.043 3.588 1.794.766.75 2.042 2.79 2.412 3.897.37 1.107.712 3.512.742 4.701.031 1.189-.13 2.979-.371 4.144" fill="none" stroke="#000" stroke-linecap="round"/><circle cx="116.84" cy="97.59" r=".719" fill="#96c030" stroke-width=".133"/><circle cx="96.94" cy="95.81" r=".658" fill="#8d7fff" stroke-width=".133"/></svg></svg>