<svg viewBox="0 0 27 27" version="1.1" xmlns="http://www.w3.org/2000/svg"><path d="m20.3357 15.7174c-1.8877-.0655-5.1633 1.1694-7.5012 1.1694-2.3375 0-4.6151-1.9791-6.5027-1.9135-3.8362.1336-6.3318 2.3997-6.3318 2.6855 0 .2858 2.4956-1.4814 6.3318-1.3479 1.8876.0656 4.1652 2.1201 6.5027 2.1201 2.3379 0 5.6135-1.31 7.5012-1.3756 3.836-.1335 5.3334.8892 5.3334.6034 0-.2858-1.4974-1.8078-5.3334-1.9414"/><path d="m7.3815 19.0763c1.3756.0478 3.0341 1.5445 4.7374 1.5445 1.7032 0 4.0894-.9544 5.4647-1.0022 2.7951-.0974 3.8858.6482 3.8858.4399 0-.2084-1.0907-1.3172-3.8858-1.4142-1.3753-.0481-3.7615.8517-5.4647.8517-1.7033 0-3.3618-1.4418-4.7374-1.394-2.7947.097-4.6128 1.7481-4.6128 1.9565 0 .2083 1.8181-1.0796 4.6128-.9822"/><path d="m22.4415 21.8977c-1.5591 0-3.0774-1.3195-4.3363-1.2758-2.5583.0892-4.2226 1.6003-4.2226 1.7908 0 .1906 1.6643-.9879 4.2226-.8988 1.2589.0437 2.7772 1.4138 4.3363 1.4138 1.5587 0 3.743-.8736 5.002-.9176 2.5578-.0889-3.4433-.1124-5.002-.1124"/><path d="m16.7166 22.7702c-.8555-.0297-2.3396.5301-3.3995.5301-1.0591 0-2.091-.8971-2.9467-.8674-1.7384.0608-2.8695 1.0875-2.8695 1.217 0 .1298 1.1311-.6714 2.8695-.6106.8557.0297 1.8876.9607 2.9467.9607 1.0599 0 2.544-.5935 3.3995-.6236 1.7386-.0604 2.4173.4033 2.4173.2735 0-.1295-.6787-.8193-2.4173-.8797"/><path d="m17.6144 8.5466c-1.5389.8716-2.0662 2.8016-1.1775 4.3113.8887 1.5094 2.8561 2.0263 4.3948 1.1548 1.5393-.8713 2.0665-2.8011 1.1782-4.3108-.889-1.5095-2.8565-2.0268-4.3955-1.1553"/><path d="m8.6707 14.845c1.4017.6219 2.8507 1.2653 4.2283 1.2653.8931 0 1.9229-.1538 2.9903-.3628l.9157-.5183c-1.5331-1.9162-3.6415-4.759-3.3922-6.4029.2173-1.4332 4.3243-2.6324 6.8758-3.7193.5901-.2513.7476-1.0128.4262-1.5585-.321-.546-1.0058-.6827-1.5889-.4176-3.0895 1.4042-7.8977 2.6972-8.2113 4.8683-.2258 1.5615.2962 2.8804.8049 3.745.198.336.1543.6488.3034.8348l-3.6294 2.1434c.0922.0411.1838.0814.2772.1226"/></svg>