<svg viewBox="0 0 27 27" version="1.1" xmlns="http://www.w3.org/2000/svg"><path d="m10.094 10.9618v4.5639c0 0 1.1859.0007 1.1802 0l.0091-4.5723c1.3083-.394 2.0829-2.0762 1.8068-4.0918-.3162-2.308-1.3992-3.8616-2.4144-3.8616-1.0154-.00001-2.1021 1.5537-2.4183 3.8616-.2783 2.0312.5284 3.7233 1.8366 4.1002"/><path d="m15.3347 12.0678v3.4579h1.1183c-.0054-.0006-.0159-3.4656-.0159-3.4656 1.2126-.3652 1.9308-1.9244 1.6747-3.7929-.2931-2.1394-1.2969-3.5563-2.2381-3.5563-.941-.00001-1.9483 1.4169-2.2415 3.5563-.258 1.8829.4897 3.4513 1.7025 3.8006"/><path d="m4.7372 13.2227v2.303h1.1184c-.0053-.0006-.0159-2.3107-.0159-2.3107 1.2127-.3652 1.9307-1.9244 1.6748-3.7929-.2931-2.1394-1.297-3.5564-2.2381-3.5564-.9411 0-1.9484 1.417-2.2416 3.5564-.2579 1.8829.4898 3.4513 1.7024 3.8006"/><path d="m23.234 19.0738h-2.2106c.026-.1356.0403-.2747.0403-.4168 0-1.3604-1.2384-2.4631-2.766-2.4631h-13.5317c-1.5276 0-2.766 1.1027-2.766 2.4631 0 1.3603 1.2384 2.4631 2.766 2.4631h2.2106c-.026.1355-.0403.2746-.0403.4168 0 1.3603 1.2384 2.4631 2.7661 2.4631h13.5316c1.5276 0 2.766-1.1028 2.766-2.4631 0-1.3603-1.2384-2.4631-2.766-2.4631"/></svg>