<svg viewBox="0 0 457 112" version="1.1" xmlns="http://www.w3.org/2000/svg" width="457" height="112"><path d="m420.623 69.2354c-.4335 0-1.0839-.045-1.7207-.2579-.9882-.2832-2.1953-1.0742-3.7089-4.8144-1.9063-4.75-5.9473-15.3027-8.3614-21.6084l-1.8945-4.9336c-.5254-1.3545-.7266-1.666-1.0859-1.666-.3555 0-.5489.3193-1.0879 1.8008l-9.9922 27.3369c-.8379 2.3222-1.7305 3.8125-3.5957 4.0547l-1.2598.0879-.2226.0312c-.0957-.0312-.1973-.0312-.25-.0312-.4297 0-1.5664 0-2.8262-.3926-1.8496-.6016-2.1231-3.0782-2.2871-4.5586l-2.9492-27.0264c-.0879-.8252-.2227-1.3027-.6543-1.3027-.3985 0-.6016.3857-.7754.7803-.002 0-11.5977 24.7714-12.8282 27.4023-.2285-.4707-13.3554-27.4512-13.3554-27.4512-.1973-.4375-.4063-.7314-.7735-.7314-.3906 0-.5273.4531-.6093.8965l-3.17 28.7099-.0156.1602c-.1699 1.6172-.3301 3.1445-1.6406 3.3828-.6504.1309-.9512.1309-1.2988.1309-.2754 0-.5684.121-.5684.3457 0 .5234.6602.5234.877.5234l2.707-.0918.9902-.041.7891.0312 3.3047.1016c.3203 0 .9179 0 .9179-.5234 0-.2168-.2441-.3457-.4804-.3457-.2676 0-.916-.0469-1.6426-.2168-.6074-.1231-1.0449-.6446-1.0449-1.2422l.0429-2.2364c0 0 1.6055-18.6425 1.7461-20.2636.6563 1.5439 5.3438 11.5976 5.7618 12.4316l.2148.4336c2.6055 5.2266 4.2656 8.5195 4.9355 9.7813l.0762.1445c.8301 1.5742 1.0274 1.9492 1.4004 1.9492.4277 0 .5723-.3027 1.2617-1.7598l.3067-.6464c0 0 9.7031-20.5938 10.6972-22.7012.0411.4502 2.0918 22.4824 2.0918 22.4824.0293.2715.041.5059.041.7012 0 .4648-.0664.7148-.121.75-.1719.0332-.4043.1172-.4043.4297 0 .3808.4531.4902 1.3476.5683 1.5781.127 6.3418.2637 7.3613.2637.3067 0 .5547-.0449.7325-.1231.2129.1211.541.1231.7558.1231l3.9668-.0996 1.0059-.0332 1.1211.0469 2.3125.0859c.5215 0 .7871-.1621.7871-.4805 0-.1777-.0977-.3886-.5664-.3886h-.4395c-.5976 0-1.5469-.3125-1.5469-1.1504 0-.7852.2168-1.8164.6094-2.9063l2.6426-7.7939c.0918-.2325.207-.2657.3184-.2657h9.4648c.1582 0 .2109.0479.2832.1934l4.0859 10.8174c.1211.3203.1348.6055.0391.8066-.0508.1074-.1328.1856-.2246.2168-.3223.0821-.3926.2774-.3926.4278 0 .3613.4375.3847 1.2344.4238l.2051.0117 6.9179.0879c.67 0 1.0079-.1621 1.0079-.4805 0-.3886-.4122-.3886-.5665-.3886m-13.1621-13.9541h-8.4082l-.0371-.0469.0235-.0889 3.875-11.8926c.125-.375.2129-.4072.2129-.4082 0 .003.0859.044.207.4082l4.1836 11.8877v.0001l.0117.1309-.0684.0088m48.9493 13.9541c-.2598 0-.8711 0-1.6973-.1309-1.1777-.1875-3.0117-.7188-5.2988-3.1328-2.2364-2.3906-4.8399-5.7324-7.8555-9.6026 0 0-1.0977-1.4091-1.2227-1.5683 3.5996-3.3457 5.2832-6.583 5.2832-10.1797 0-3.0527-1.9414-5.2637-3.0878-6.0879-2.4122-1.7285-5.4629-1.9609-8.1309-1.9609l-3.709.0898-1.4863.042-.584-.0205-4.3887-.1113c-.2695 0-.832 0-.832.4795 0 .2255.2031.3886.4805.3886.3964 0 1.1289.045 1.4648.1289 1.4356.3047 1.7148.9844 1.7969 2.3936.0879 1.4043.0879 2.6406.0879 9.501v7.747c0 4.2998 0 7.6963-.2188 9.5381-.1621 1.168-.3613 2.1485-1.1758 2.3125-.4902.1074-.9746.1739-1.2949.1739-.3535 0-.4805.2089-.4805.3886 0 .4805.5625.4805.8321.4805l3.9414-.125.1973-.0078.5214.0176 4.8926.1152c.6875 0 .8301-.2617.8301-.4805 0-.1797-.125-.3886-.4785-.3886-.3809 0-1.334-.086-1.9629-.1758-1.168-.1543-1.4668-.9317-1.6094-2.3086-.2187-1.8438-.2187-5.2403-.2187-9.5401v-1.0556c0-.208.0859-.2246.1796-.2246l5.4141.0869c.2207 0 .3242.0674.4844.2275l1.6387 2.2324 3.1484 4.2696.5508.7246c2.2031 2.9101 3.6582 4.832 5.4316 5.7812 1.1992.6446 2.3594.8516 4.7715.8516h3.125c.6484 0 1.1836-.0371 1.1836-.4805 0-.2109-.2402-.3886-.5234-.3886m-17.3711-15.6504c-1.0489.7295-2.3457.8144-3.2305.8144-1.9121 0-3.916-.3017-4.5566-.6865-.17-.1016-.2461-.2315-.2461-.4199v-14.3936c0-.2002.0918-.3379.2734-.4111.4082-.1211 1.5723-.2549 2.9023-.2549 4.6875 0 7.4883 3.2441 7.4883 8.6787 0 3.0498-.9844 5.5449-2.6308 6.6729m-208.9473 15.6504c-.2593 0-.8696 0-1.6968-.1329-1.1797-.1875-3.0117-.7168-5.2978-3.1308-2.2432-2.3965-4.8545-5.75-7.878-9.6319 0 0-1.0752-1.3798-1.2002-1.539 3.5997-3.3467 5.2832-6.584 5.2832-10.1797 0-3.0527-1.9423-5.2627-3.0898-6.0879-2.4111-1.7295-5.4619-1.9619-8.1299-1.9619l-3.7129.0908-1.4804.042-.586-.0215-4.3886-.1113c-.2696 0-.8311 0-.8311.4785 0 .2266.2012.3906.4785.3906.3984 0 1.1289.045 1.4658.1289 1.4346.3047 1.7139.9844 1.7969 2.3936.0879 1.4043.0879 2.6406.0879 9.501v7.747c0 4.2998 0 7.6963-.2188 9.5381-.1611 1.168-.3613 2.1504-1.1757 2.3125-.4903.1074-.9737.1739-1.295.1739-.3535 0-.4794.2011-.4794.3886 0 .4805.5615.4805.831.4805l3.9443-.125.1963-.0078.5196.0176 4.8925.1152c.6866 0 .8311-.2617.8311-.4805 0-.1797-.126-.3886-.4795-.3886-.3789 0-1.334-.086-1.9639-.1758-1.167-.1543-1.4648-.9317-1.6064-2.3086-.2197-1.8438-.2197-5.2403-.2197-9.5401v-1.0556c0-.209.0849-.2266.1806-.2266l5.4121.0889c.2207 0 .3233.0674.4844.2275l1.6475 2.2451 3.1396 4.2569.5606.7402c2.1982 2.9004 3.6504 4.8184 5.4238 5.7656 1.1973.6446 2.3564.8516 4.7695.8516h3.125c.648 0 1.1831-.0371 1.1831-.4805 0-.2109-.2382-.3886-.5234-.3886m-17.3706-15.6504c-1.0498.7295-2.3457.8144-3.2295.8144-1.9141 0-3.916-.3017-4.5576-.6865-.1699-.1016-.2451-.2315-.2451-.4199v-14.3936c0-.2002.0908-.3389.2714-.4111.4073-.1211 1.5704-.2549 2.9024-.2549 4.6885 0 7.4883 3.2441 7.4883 8.6787 0 3.0498-.9834 5.544-2.6299 6.6729m-56.501-2.5928l-1.2324-.9678c-3.9932-3.2685-5.3223-4.7812-5.3223-7.2949 0-2.9785 2.125-4.9795 5.2871-4.9795 3.7539 0 5.0205 1.585 5.3907 2.2656.2539.4649.5136 1.625.5576 2.1504.0381.3106.084.6904.4785.6904.4004 0 .4346-.5878.4346-1.1386 0-2.3496.1084-3.7481.1552-4.3448l.0215-.3232c0-.3818-.2724-.4346-.5674-.4346-.3173 0-.6386-.0332-1.5136-.2177-1.2569-.3018-2.5674-.4424-4.1211-.4424-5.6123 0-9.2383 3.1592-9.2383 8.0498 0 2.9512.9814 5.7217 5.7685 9.6514l1.9805 1.6279c3.9375 3.251 5.0156 4.9336 5.0156 7.8262 0 2.8457-2.1181 5.7285-6.167 5.7285-3.4433 0-5.833-1.6407-6.3916-4.3887-.1279-.6035-.1279-1.2051-.1279-1.6035 0-.2578 0-.6113-.4365-.6113-.3721 0-.4414.4238-.4775.8203l-.0391.5273c-.0684.8867-.1826 2.3711-.1826 4.1484 0 1.2071.0537 1.4493.7314 1.7872h.0001c1.6572.8085 3.6055 1.2011 5.9541 1.2011 2.6416 0 4.9648-.6465 6.7187-1.8711 2.7999-1.9863 3.7969-5.1308 3.7969-7.4101 0-3.3848-1.0595-6.1787-6.4746-10.4463m33.375 12.917c-.3545 0-.4453.3457-.5195.7637-.3057 1.7832-.8223 2.6152-1.9063 3.0742-1.1211.4746-3.0341.4746-4.1767.4746-4.4121 0-4.8555-.6172-4.9795-3.4883-.0322-.6621-.0186-3.5059-.0078-5.584l.0078-1.9385v-3.873c0-.1289.0527-.1807.1806-.1807.7442 0 5.1075.0879 6.2813.2198 1.6045.163 2.0029.8232 2.1807 1.4472.1709.5576.1709.9756.1709 1.418 0 .3232.167.5234.4355.5234.4346 0 .4346-.5801.4346-.9638 0-.3184.0898-1.9434.1758-2.8038l.2744-1.9423.0791-.5352c0-.418-.2178-.4795-.3467-.4795-.2207 0-.3975.2031-.6895.5401l-.0664.0761c-.3711.4112-.997.4912-1.9843.5733-.96.082-5.9903.0869-6.9883.0869-.0918 0-.1377 0-.1377-.3125v-12.1504c0-.3135.0928-.3135.1377-.3135.5234 0 5.2842.0459 6.0146.1319 2.3408.2597 2.7422.7753 3.0244 1.4209.1993.4814.253 1.1914.253 1.5351 0 .4639.1611.6982.4795.6982.3125 0 .4033-.4394.4326-.5839.0596-.3536.1162-1.2813.1611-2.0274l.0606-.8926.2607-1.5312.0928-.5498c0-.4317-.1651-.5225-.3037-.5225l-.4034.126-.2382.0977c-.3731.0927-1.0899.1748-1.8741.2158-.9961.0439-9.7031.0449-10.0732.0449l-.5879-.0215-4.3867-.1113c-.2695 0-.8311 0-.8311.4785 0 .2266.2012.3906.4795.3906.3975 0 1.1289.045 1.4649.1289 1.4355.3047 1.7138.9844 1.7968 2.3936.0879 1.4043.0879 2.6406.0879 9.501v7.747c0 4.2998 0 7.6963-.2187 9.5381-.1895 1.3848-.4336 2.1641-1.1748 2.3125-.4903.1074-.9737.1739-1.2969.1739-.3535 0-.4785.2089-.4785.3886 0 .4805.5615.4805.832.4805l2.5586-.0879 1.5938-.0391.1611-.0058 1.6836.0586c1.707.0781 4.5644.207 9.1885.207 1.708 0 2.167 0 2.499-1.2402.2305-.961.5771-3.959.5771-4.3028 0-.3125 0-.7851-.3906-.7851m102.1177 5.3262c-.4316 0-1.0801-.045-1.7188-.2598-.9882-.2813-2.1953-1.0723-3.7089-4.8125-1.9161-4.7735-5.9727-15.3721-8.3985-21.7041l-1.8574-4.8389c-.5234-1.3535-.7266-1.665-1.0859-1.665-.3575 0-.5508.3193-1.0879 1.8008l-9.9922 27.3369c-.7246 2.0078-1.4903 3.3926-2.8906 3.8867-1.1622-.2832-2.7618-.9785-4.6836-3.0078-2.2383-2.3906-4.8399-5.7305-7.8536-9.5977 0 0-1.1015-1.414-1.2265-1.5732 3.6015-3.3457 5.2851-6.583 5.2851-10.1797 0-3.0518-1.9433-5.2627-3.0918-6.0879-2.4121-1.7295-5.4628-1.9619-8.1289-1.9619l-3.7109.0908-1.4844.042-.5859-.0215-4.3867-.1113c-.2696 0-.8321 0-.8321.4785 0 .2266.2012.3906.4786.3906.3984 0 1.1308.045 1.4668.1289 1.4355.3047 1.7128.9844 1.7968 2.3936.0879 1.4053.0879 2.6406.0879 9.501v7.747c0 4.2998 0 7.6963-.2187 9.5381-.1621 1.168-.3614 2.1485-1.1758 2.3125-.4902.1074-.9727.1739-1.2969.1739-.3535 0-.4785.2089-.4785.3886 0 .4805.5625.4805.832.4805l3.9434-.125.1953-.0078.5215.0176 4.8926.1152c.6855 0 .83-.2617.83-.4805 0-.1797-.125-.3886-.4785-.3886-.3808 0-1.334-.086-1.9629-.1758-1.1699-.1543-1.4668-.9317-1.6093-2.3086-.2188-1.8438-.2188-5.2403-.2188-9.5401v-1.0556c0-.209.0859-.2266.1816-.2266l5.4122.0889c.2207 0 .3242.0674.4843.2265l1.6348 2.2295 3.1523 4.2735.5645.7441c2.1973 2.9004 3.6465 4.8145 5.4199 5.7617 1.1641.627 2.2969.8399 4.5781.8496l.1426.002h.0078.0391 3.1269c.3633 0 .6895-.0137.9083-.1035l.8906-.0293 1.1211.0469 2.3125.0859c.5234 0 .7871-.1621.7871-.4805 0-.1777-.0977-.3886-.5664-.3886h-.4395c-.5976 0-1.5469-.3125-1.5469-1.1504 0-.7832.2168-1.8145.6075-2.9063l2.6445-7.7959c.0937-.2334.2129-.2656.3184-.2656h9.4648c.1582 0 .209.0488.2813.1943l4.0898 10.8184c.1191.3203.1328.6074.0371.8086-.0508.1054-.1328.1836-.2227.2148-.3242.0801-.3945.2774-.3945.4278 0 .3613.4395.3847 1.2344.4238l.2051.0117 6.9179.0879c.67 0 1.0079-.1621 1.0079-.4805 0-.3886-.4122-.3886-.5684-.3886m-45.8008-15.6504c-1.0508.7295-2.3457.8144-3.2305.8144-1.914 0-3.916-.3017-4.5566-.6865-.1699-.1016-.2461-.2315-.2461-.4199v-14.3936c0-.1992.0918-.3379.2715-.4111.4082-.1211 1.5723-.2549 2.9023-.2549 4.6895 0 7.4903 3.2441 7.4903 8.6787 0 3.0498-.9844 5.5449-2.6309 6.6729m32.6406 1.6953h-8.4082l-.0371-.0459.0235-.0889 3.8769-11.8935c.125-.375.211-.4063.211-.4073.0019.003.0859.043.2089.4082l4.1817 11.8877.0117.1309-.0684.0088m48.6504-10.6387c-7.1738 0-9.8496 5.9961-9.8496 9.7744 0 4.7334 3.0371 9.8252 9.7031 9.8252 5.7774 0 9.9707-4.2969 9.9707-10.2197 0-5.6104-3.9472-9.3799-9.8242-9.3799m.5176 18.4219c-4.5801 0-7.7812-3.8399-7.7812-9.3389 0-4.9365 2.7168-8.0039 7.0918-8.0039 3.5566 0 7.3867 2.8135 7.3867 8.9922 0 7.9482-5.5782 8.3506-6.6973 8.3506m-23.7559-18.0791l-.4687.0019-2.7422.0586-.5918.0166-.3281-.0117-2.4629-.0635c-.1523 0-.5137 0-.5137.3174 0 .1553.1348.2686.3184.2686l.8105.0693c.7032.1504.92.4414.9707 1.3008.0489.7851.0489 1.4785.0489 5.3252v4.3457c0 2.3154 0 4.3154-.1231 5.3467-.1055.7695-.2305 1.1777-.6211 1.2539l-.7168.0976c-.2344 0-.3164.1426-.3164.2656 0 .3184.3613.3184.5137.3184l2.0176-.0586.4023-.0156.6719.0469c1.1269.0879 3.2226.25 4.8105.25 3.1543 0 5.7715-.9942 7.5703-2.877 1.7149-1.8086 2.6993-4.3769 2.6993-7.0478 0-3.1641-1.3203-5.2022-2.4278-6.3545-2.7968-2.8897-7.0058-2.8672-9.5215-2.8545m7.5489 15.792c-1.4395 1.4375-3.5508 2.2617-5.7949 2.2617-2.8575 0-3.8067-.5078-4.0997-.9356-.1894-.2597-.2343-1.3886-.25-1.8125-.0234-.4492-.0488-2.622-.0488-5.3554v-3.0625l.0235-5.2559c0-.2441.0585-.3144.2246-.3887.1679-.083 1.0312-.1621 1.5586-.1621 3.2246 0 5.8164.4688 7.9882 2.7539.8731.9161 2.3379 2.9307 2.3379 6.1407 0 2.3789-.7617 4.6621-1.9394 5.8164" style="fill:#1c1c1a"/><g style="fill:#009540"><path d="m216.7261 7.2666c-.4873-3.1748-3.0332-5.1865-6.4649-5.9551-1.4355-.3037-3.0761-.4541-4.8125-.4541-8.1308 0-18.2734 2.9815-20.122 2.9815-.2295 0-1.0762.167-.9444.6103.1065.3721.3975.8428 1.2891 1.3779.5508.3448 1.2246.46 1.9971.46 4.124 0 11.2265-3.9394 18.3955-3.9394 1.04 0 2.0898.0752 3.125.2666 1.9033.3437 2.5703 1.0761 2.875 1.913 1.7597 4.8331-10.6094 10.7461-13.7432 12.9278-.4551.3047-.6338.6484-.5918.916.041.2695.2627.46.6885.46.1914 0 .3789-.0372.6377-.1143.3965-.1367 2.7685-1.2236 4.2275-1.5957 2.208-.669 2.3262-.085 4.5401-1.0283 6.7578-2.878 9.373-5.7617 8.9033-8.8262"/><path d="m200.0571 7.165c-.1074-.7041-.4258-1.2832-.9853-1.7382-.4092-.2696-.6807.5117-.751.6923-.4971 1.2657-2.998 4.0733-5.1641 7.3213-1.9775 2.9434-3.6943 6.3096-3.2666 9.1016.293 1.9121 1.4766 3.0976 2.7881 3.8643.8858.4951 1.5235.8779 1.8701.8779.3457 0 .4532-.3057.4297-.459-.0224-.1514-.1562-.2686-.5429-.2686-.4229 0-.6573-.2666-.7266-.7265-.2402-1.5664 1.1416-5.6211 3.71-10.7471 1.6484-3.3271 2.9267-6.043 2.6386-7.918"/><path d="m410.9648 22.6182c-.1152 0-.3242.1552-.5585.3828-.9922 1.0693-2.3965 2.7539-3.3594 2.7539-.0781 0-.211-.1143-.2227-.1914-.3652-2.3711 7.4297-16.1397 6.8321-20.042-.0411-.2676-.1133-.4981-.543-1.0313-.2383-.3086-1.4356-.4111-1.6992.4151-.9981 2.2773-6.0996 9.4853-7.2422 15.2529-1.2696 1.5244-3.1426 3.666-4.0449 4.4531-.1348.1143-.6211.5342-.7383.5342-.1934 0-.3516-.1797-.3496-.3848 0-.1162-.002-.2685.0117-.4209.2851-1.3681 1.6308-3.8242 2.0293-5.1962.5137-2.0049.4765-4.3233-.0938-5.1592-1.2343-2.0274-2.3418-2.6114-3.4199-2.6114-.5019 0-.8769.0752-1.6289.4581-1.7793.8896-6.1152 4.0371-8.3359 8.1357-.2676.166-.6856.5439-1.2461 1.1982-1.17 1.4151-3.211 3.9395-3.9434 3.9395-.1172 0-.168-.0762-.1836-.1914-.0234-.1524-.0156-.3447.0606-.6123.3222-1.4151 1.3984-3.4414 1.9336-5.2383.0234-.0752.0371-.1514.0566-.2275.0391-.1407.0781-.2813.1055-.4229.0019-.0058.0039-.0107.0058-.0156l-.0019-.0001c.123-.6211.1562-1.2392.0605-1.8584-.209-1.3779-1.6191-2.0264-2.3183-2.0654-.3086 0-.3633.1533-.3633.6494-.0039.1631-.1602.958-.5567 1.7334-.0742.1426-2.582 3.6621-4.9941 5.3057-.293.2011-1.0586.8789-1.4082.8789-.1113 0-.2031-.0772-.2246-.2276-.0293-.1933.0371-.499.1621-.957.2012-.6445.8769-1.6465 1.5527-2.7666.0039-.0059.0078-.0117.0098-.0166 1.0078-1.8125 1.4551-3.1231 1.4551-3.1231.1172-.4746.1699-.9345.1054-1.3603-.1464-.9522-.9336-1.8369-2.6894-2.2412-.1524-.0362-.5527.2207-.4981.5576.043.2549-.291.9678-.7695 1.9375l-.0019-.0001c-.3047.6182-.67 1.3447-1.0352 2.1211-.0547.1192-.1113.2393-.168.3613-.0312.0723-.0644.1416-.0976.2149-.0098.0224-.0215.0449-.0313.0683h.002c-.4199.9307-.8164 1.9131-1.1016 2.8721-1.4609 1.8457-3.7969 4.4951-4.6445 4.8174-.1817.0771-.3301.1133-.4082.1133-.1153 0-.1992-.0362-.25-.3809-.2637-1.7217 2.4785-12.7353 7.2578-17.7461.5898-.539.7441-1.1845.4141-1.4638-.6993-.5909-1.8594-1.1387-2.7754-1.1387-1.1563 0-3.1231 4.5137-5.0723 8.6435-.082.1836-.2461.4541-.4844.8096-.8789-2.4531-4.166-2.1094-4.166-2.1094l.0098.0088c-.0352-.0019-.0742-.0088-.1074-.0088-.3457 0-.6485.0391-.9336.1914-1.4278.7354-4.1641 4.4776-5.4239 8.1172-1.2578 1.5069-3.0117 3.5118-3.8906 4.2793-.1348.1143-.623.5342-.7383.5342-.1933 0-.3515-.1797-.3496-.3848 0-.1162-.0019-.2685.0117-.4209.2852-1.3681 1.6309-3.8242 2.0293-5.1962.5137-2.0049.4766-4.3233-.0937-5.1592-1.2344-2.0274-2.3418-2.6114-3.4219-2.6114-.5 0-.875.0752-1.6269.4581-1.7989.8984-6.211 4.1084-8.4082 8.2744 0 .0019-.002.0039-.004.0068-.125.0752-.2734.1924-.4414.3643-3.1894 3.3271-5.6191 5.3154-6.6621 5.3154-.3457 0-.5293-.1904-.5879-.5732-.2226-1.4532.9727-4.2071 3.584-10.0586.0938-.1524.1914-.2686.3828-.2686 1.877-.0762 4.2657-.0762 5.2813-.4941.4004-.1553.5957-.3848.5742-.5381-.0254-.1524-.1914-.2276-.5371-.2276-.9258 0-2.7051-.041-4.5918-.041-.3086 0-.3555-.0361-.293-.1504 1.0782-2.2578 1.4141-3.5966 1.25-4.6679-.1191-.7676-.5175-1.2637-1.0586-1.627-.7773-.291-.8945.4297-.9277.5479-.2734.957-1.7422 3.8574-3.2422 5.9384-.6953 0-1.2773-.041-2.8965-.041-.5019 0-.748.1553-.7129.3838.0157.1143.1114.2295.25.3828.3223.3438.5606.3819 1.4981.458.3887.0391.6211.0391 1.123.0391-.9824 1.3848-1.6406 2.5351-2.2578 3.9971-1.2051 1.1113-3.2187 2.7861-3.8945 3.3076.0371-1.7598-1.6289-2.7529-2.7051-3.7471-.1836-.1914-.2793-.3086-.3047-.46-.0625-.4208.7461-.6884 1.9629-1.3007 1.1055-.5733 1.6445-1.0713 1.5508-1.6836-.0586-.3799-.3535-.8018-.9043-1.377-1.1016-1.1474-1.4512-1.4121-1.6797-1.4121-.1562 0-.2539.1143-.4355.1895-2.8243 1.1865-3.6172 2.2939-3.4336 3.4795.1875 1.2255 1.5625 2.4101 2.6582 3.5195.2715.2676.3691.581.4355.8418 1.1094 4.1406-3.664 4.1689-4.8027 5.5459-.293.3437-.875.6514-.8301.956.043.2676.1875.461.4434.6123.4199.2305 1.0547.3438 1.8222.3438 2.625 0 6.6563-1.3399 6.3399-3.9014-.0196-.1279 1.6094-1.5635 2.9765-2.9394-.3418 1.1367-.4199 2.0029-.2773 2.9394.416 2.7139 3.0371 3.4815 4.0391 3.4815 2.0722 0 4.0878-2.1075 6.4863-5.1973-.0606.1885-.127.377-.1758.5684-.0019.0039-.0019.0078-.0019.0117-.0313.1426-.0528.2939-.0606.4502 0 .0137-.0019.0263-.0019.039-.0059.1416 0 .2862.0195.4297.0019.0215 0 .042.0019.0635.1211.7842.5645 1.5869 1.1485 2.1943.4062.4229.8808.7452 1.3652.9063.2149.0703.4297.1123.6406.1123h.002c.0762 0 .1543-.0078.2324-.0186.3125-.04.625-.164.8906-.4394 2.2871-2.1797 4.6934-5.2627 6.4258-7.4483.1035-.0732.1817-.0732.2578-.0732.1153 0 .166.0732.1778.1514.0175.1152-.0371.2666-.1211.459-.836 1.8378-.9844 2.9707-.8164 4.081.2578 1.6817.9589 2.458 1.873 2.7588.4707.1543 1.4258.0225 1.7774-.3047.4765-.4414 1.75-1.8867 3.1132-3.458-.0527.3281-.0957.6523-.1054.9648-.0762 1.5303 2.3164 3.0586 3.5879 3.0586.2324 0 .4589-.0361.5937-.1503 1.3633-.92 4.7734-6.5792 5.7188-8.4542.1464-.3046.2832-.4208.3984-.4208.0762 0-.0371.2685-.084.4599-.5723 2.0654-1.3769 4.0908-1.0547 6.1963.293 1.9111 1.8067 2.4863 2.7696 2.4863.3085 0 .5683-.0771.7089-.1533.9375-.5644 2.7891-2.5215 4.2305-4.293-.0625.5186-.0703 1.0108 0 1.4629.2813 1.835 1.7891 2.3682 2.4434 2.3682 2.1972 0 4.4004-3.9766 6.5879-6.041.2363-.2285.3359-.3438.373-.3438.0391 0 .0449.0362-.043.2285-.6816 1.5674-.8808 2.793-.7343 3.7491.1523.9941.6933 1.7578 1.4238 2.2578.3437.2295.6699.3428 1.0156.3428 1.75 0 3.4121-2.6807 4.5469-4.2051-.0606.1904-.1289.3789-.1777.5713-.004.0205-.004.042-.0079.0615-.0254.1221-.0429.249-.0507.3799-.002.0263-.0039.0508-.0039.0781-.0059.1289 0 .2617.0175.3945.002.0264-.0019.0528.002.0801.2441 1.5684 1.7676 3.2129 3.1543 3.2129h.0019c.0801 0 .1621-.0078.2442-.0195.3086-.042.6172-.167.8808-.4385 2.2852-2.1797 4.6914-5.2627 6.4239-7.4483.1035-.0732.1816-.0732.2597-.0732.1133 0 .1641.0732.1778.1514.0156.1152-.0391.2666-.1231.459-.8359 1.8378-.9824 2.9707-.8164 4.081.2598 1.6817.959 2.458 1.8731 2.7588.4707.1543 1.4257.0225 1.7793-.3047.5351-.4951 2.0742-2.2588 3.6171-4.0439-.0175.497-.0078.9804.0625 1.4355.1407.918.502 1.7617 1.0684 2.4473.5684.6904 1.1934.9951 1.8496.9951 1.1191 0 2.4316-1.2598 3.7715-3.3262.2832-.4228.3574-.6875.3398-.8037-.0058-.0371-.0507-.0771-.0879-.0771m-62.75-5.6661c-1.5429 1.1778-4.0195 3.7608-5.6289 5.2452-.1093.0986-.205.1699-.2949.2314-.0859.0586-.1621.1006-.2324.1309-.0117.0049-.0234.0117-.0352.0156-.0703.0273-.1328.043-.1816.043-.1016 0-.1816-.0391-.25-.0938-.1133-.0908-.1875-.2363-.2109-.4043-.0137-.082-.0098-.164-.002-.2451.0039-.0205.0059-.041.0078-.0615.0156-.0889.0371-.1778.0606-.2666.0136-.044.0351-.0899.0527-.1348.0313-.084.0664-.1699.1035-.2558.0488-.1094.1016-.2217.1602-.334l-.002-.0059-.0019-.0019c1.4394-2.8985 5.3496-6.212 7.6152-6.3946.5703.1524.5039.8848.2617 1.1231-.2012.2011-.8027.7949-1.4219 1.4091m15.9727-1.0185l.0449-.0244c-1.0449 1.3974-2.5527 3.3428-4.5566 5.9453-.9024 1.1465-1.1504 1.2998-1.418 1.2998-.0781 0-.1601-.0391-.1973-.2686-.0351-.2285.0489-.6884.209-1.1464 1.3106-4.1055 3.4883-7.4502 5.1641-7.669 1.5996.7295.7539 1.8633.7539 1.8633m33.1523 1.0185c-1.5429 1.1778-4.0214 3.7608-5.6308 5.2452-.2735.247-.4863.3662-.6406.4033-.0371.0098-.0743.0176-.1036.0176-.0918 0-.166-.0332-.2304-.0791-.125-.0889-.2031-.2422-.2305-.419-.0312-.1904.0195-.3808.0645-.5732.0488-.1436.1132-.292.1796-.4405.129-.288.2891-.583.4747-.8818-.002-.0039-.0039-.0098-.0059-.0137 1.6719-2.7714 5.1719-5.6211 7.2832-5.791.5684.1524.502.8848.2617 1.1231-.2031.2011-.8047.7949-1.4219 1.4091"/><path d="m313.9668 25.8301c-4.2832.959-7.502 1.3418-9.7734 1.3418-3.045 0-4.5-.6924-4.6524-1.6856-.3262-2.1425 5.332-5.6972 13.4121-6.541.5332-.0381.6719-.1514.627-.418-.2149-1.4169-1.3985-3.8652-3.1778-3.6357-.6757.0889-1.7871.333-3.08.7188-1.7657-.1768-5.2227-.2969-7.2168-1.0225-1.043-.3809-1.627-1.29-1.6973-1.75-.4141-2.7149 13.3594-8.5029 19.75-8.0342 1.4238.1035 1.9277.7217 2.125 1.3106.1191.3505.7969.6855 1.2598.205.4648-.4804.7812-1.0703.8886-1.9502.1289-1.039-1.25-4-5.3711-3.9345-4.9746.0791-22.08 4.8574-21.1074 11.207.1172.7656.5117 1.5674 1.2578 2.4092 1.252 1.3779 3.3575 1.9482 5.4219 2.1933.7715.0918 1.5957.1622 2.377.1495-3.8828 1.4834-8.1016 3.9863-7.5938 7.2968.082.5332.2793 1.0703.5938 1.6055 1.4785 2.6006 3.9082 3.6328 6.6074 3.6328 3.0449 0 6.4726-1.2617 9.5-2.6387.2207-.0771.3828-.2685.3652-.3808-.0058-.0381-.0683-.1924-.5156-.0791"/><path d="m287.168 18.2578c-.0762 0-.1465.0381-.2129.1133-2.043 2.5264-8.1582 6.7178-10.5078 6.7178-.5 0-.916-.1905-.92-.9551.0157-.7891.129-1.5244.3067-2.2129.2461-.0576.5547-.1406.9414-.2598 2.1348-.6562 6.9668-2.915 7.084-5.082.0117-.2432.0234-.6602-.168-1.0117-.3945-.7256-1.8437-1.9375-3.6484-2.8174-.293-.1523-.5762-.2285-.8828-.2285-2.1602 0-4.6114 3.8623-5.6875 6.3857-.209.4893-.3106.7461-.4395 1.2725-.1387.1308-.7559 1.1162-1.332 1.6846-1.1739 1.4179-2.7422 3.2402-3.3633 3.2402-.1191 0-.166-.0762-.1856-.1914-.0234-.1524-.0117-.3447.0625-.6123.3223-1.4151 1.3985-3.4414 1.9336-5.2383.2559-.8447.3555-1.6846.2286-2.5254-.211-1.3779-1.6211-2.0264-2.3204-2.0654-.3086 0-.3632.1533-.3632.6494-.0039.2295-.3145 1.7217-1.1758 2.6387-.9531 1.0713-1.6172 2.0293-4.375 4.4004-.2754.2294-1.0586.8789-1.4063.8789-.1152 0-.2031-.0772-.2265-.2286-.0293-.1923.0371-.498.1601-.956.4649-1.4932 3.4903-4.8955 3.125-7.2666-.1445-.9522-.9316-1.8369-2.6875-2.2412-.1543-.0362-.5547.2207-.498.5576.1035.626-2.0489 3.9932-3.0879 7.1914-1.5293 1.3369-3.6367 2.7764-5.3496 3.5898 1.9023-2.8691 3.3535-6.7851 3.1562-8.7548-.1093-1.2237-2.1211-2.7911-3.0527-3.3272-.1699-.1142-.4141-.1914-.6074-.1914-.1914 0-.3809.0361-.5157.1533-1.6757 1.1768-3.5273 3.4561-4.9335 6.0039-1.793 1.6748-4.8204 4.584-6.2481 5.7745-.2422.1933-.3848.2685-.4609.2685-.0762 0-.0801-.0391-.086-.0752-.0312-.1933.0547-.3828.1094-.5361.2246-.5352.7988-1.5684 1.2676-2.792.332-.8418.6465-2.0654.5234-2.8692-.0586-.3808-.2265-.7265-.4922-.956-1.0039-.7656-1.7246-1.1865-2.6894-1.1865-.6934 0-1.4727.1923-2.5645.6132-.1093.0372-.2187.0762-.2968.0762-.1153 0-.2051-.0762-.2149-.1543-.0117-.0752.0527-.1523.1875-.2666 1.0488-.9551 1.5293-1.6064 1.416-2.333-.0879-.5742-.7051-1.3389-1.7812-2.334-.0957-.1142-.3399-.1904-.5313-.1904-.1933 0-.3789.04-.4844.1143-2.0898 1.456-2.8554 2.4863-2.6503 3.8242.1074.6904.498 1.4931 1.1406 2.4121.1015.1533-1.8613 2.5273-2.8755 3.6523-1.2627 1.5293-2.5977 3.169-3.5498 4-.1348.1143-.6221.5342-.7383.5342-.1934 0-.3516-.1797-.3496-.3848 0-.1162-.0001-.2685.0117-.4209.2861-1.3681 1.6309-3.8242 2.0303-5.1962.5137-2.0049.4756-4.3233-.0947-5.1592-1.2344-2.0274-2.3409-2.6114-3.4209-2.6114-.501 0-.875.0752-1.628.4581-2.1464 1.0732-8.0302 5.4326-9.4062 10.7871-.0664.3047-.0918.6504-.042.9941.2432 1.5684 1.7676 3.2129 3.1543 3.2129.3867 0 .792-.1143 1.125-.458 2.2861-2.1797 4.6933-5.2627 6.4248-7.4483.1035-.0732.1816-.0732.2588-.0732.1142 0 .165.0732.1777.1514.0166.1152-.0381.2666-.1221.459-.8359 1.8378-.9834 2.9707-.8154 4.081.2578 1.6817.959 2.458 1.8731 2.7588.4697.1543 1.4248.0225 1.7773-.3047 1.125-1.043 6.688-7.6767 7.3872-8.3603.2324-.2325.5215-.4405.9004-.6182.7227-.3398 2.4649-1.0869 3.3516-1.0869.3847 0 .4843.1523.5078.3066.0664.419-.6445 1.5674-1.334 2.5987-1.1895 1.7988-1.8867 2.7929-2.1172 3.7871-.1426.5732-.2207 1.0722-.1445 1.5693.123.8027.5449 1.2988 1.5976 2.1396.5293.4219.8164.5362 1.1621.5362.5411 0 1.2969-.3428 2.1055-1.1094.9317-.9219 3.3516-3.6885 5.5352-6.0273-.543 1.3222-.8282 2.5478-.6875 3.4648.039.2676.1328.6123.2812.8418.2969.4209.9004 1.3398 1.086 1.5303.1894.2285.3711.4209.3808.4951.0195.1182-.123.1934-.3867.2314-.6055.0772-1.3906.2305-1.8867.7647-.1641.1914-.2129.3828-.1817.5742.0567.3818.5469.8027 1.0489.8027.1914 0 .455-.039.6191-.2304.4238-.4971.9727-.6875 1.5508-.6875 3.3535 0 9.3183 6.2343 15.6777 6.2343 2.3906 0 4.8028-.8408 7.209-3.2519.1641-.1914.2891-.3818.2656-.5361-.0058-.0362-.0507-.0743-.0879-.0743-.0371 0-.1484.0381-.248.1543-.9805 1.1455-2.4961 1.5674-4.2676 1.5674-5.3574 0-13.0703-4.0537-15.7676-4.5527-.2363-.0371-.3261-.1143-.3379-.1914-.0156-.1143.1211-.2295.1524-.2666.1836-.1231.3691-.2656.5547-.4248 2.1933-.0908 4.9258-2.0987 6.9609-4.2832-.1094.6054-.1543 1.6025.0078 2.0586.6192 1.7519 1.7617 2.1113 2.416 2.1113 2.1973 0 4.4004-3.9766 6.5899-6.042.2344-.2275.334-.3428.3711-.3428.0371 0 .043.0362-.043.2285-.6836 1.5674-.8808 2.793-.7383 3.7471.1563.9961.6953 1.7598 1.4278 2.2598.3437.2265.6699.3428 1.0156.3428 1.7988 0 3.4609-2.628 4.5996-4.126-.0254.4287.0273.6504.0918 1.0654.1113.7256.3789 1.4541.9023 2.1045.9493 1.1836 1.9395 1.6055 3.1348 1.6055 3.7754 0 8.4902-4.7041 10.4668-8.1455.0586-.1153.0801-.2286.0684-.3067-.0157-.1142-.1055-.1914-.1836-.1914m-6.4864-2.6006c.3223-.1533.6016-.3437.8711-.3437.1914 0 .3496.0761.3789.459.1153 1.5136-2.2812 4.1171-5.7324 5.0156 1.0762-2.7315 3.1953-4.4854 4.4824-5.1309m-57.5317 1.2949c-1.543 1.1778-4.0195 3.7608-5.6299 5.2452-.3388.3066-.5908.4209-.7441.4209-.2696 0-.4219-.2286-.4619-.4981-.0293-.1904.0175-.3808.0664-.5732 1.0088-2.9844 5.4697-6.9287 7.9297-7.127.5703.1524.5029.8848.2617 1.1231-.2022.2011-.8037.7949-1.4219 1.4091m25.3091 6.9649c-.2461.1533-.4981.2705-.6133.2705-.1152 0-.1269-.0791-.1445-.1934-.0176-.1132-.0039-.2685.0429-.457 1.1993-3.748 2.4844-5.9297 3.5567-7.2285 1.4316-1.7207 2.7246-1.8369 2.8418-1.8369.1523 0 .164.0752.1758.1533.0234.1533.0097.3057-.0391.4961-.1953.9951-1.6914 4.5527-3.8145 7.0391-.6269.6865-1.2988 1.3378-2.0058 1.7568"/></g><g style="fill:#df4013"><path d="m222.9087 107.8135c-2.0313-1.7822-2.5703-4.1035-2.5703-6.1143 0-1.4092.4355-3.8554 2.4258-5.6787 1.4921-1.3682 3.4609-2.1973 6.5498-2.1973 1.2856 0 2.0512.0831 3.0044.2071.789.1035 1.4511.29 2.0742.3525.2265.0205.3105.124.3105.2481 0 .166-.0625.415-.1035 1.1406-.043.6836-.0215 1.8242-.0625 2.2383-.0215.3105-.0625.4765-.248.4765-.1661 0-.209-.166-.209-.456-.0196-.6426-.2891-1.3682-.8067-1.9063-.6855-.7256-2.3007-1.2851-4.2085-1.2851-1.8037 0-2.9843.456-3.8964 1.2851-1.5137 1.3887-1.9073 3.3574-1.9073 5.3682 0 4.9326 3.752 7.3789 6.5293 7.3789 1.8443 0 2.9634-.207 3.7935-1.1611.3515-.3936.6211-.9952.7051-1.3682.0605-.3311.1035-.4141.2675-.4141.1465 0 .1875.1446.1875.3106 0 .249-.248 2.0517-.455 2.7568-.1055.3526-.1875.4561-.5391.6016-.8301.331-2.4043.4765-3.7324.4765-2.8394 0-5.2222-.622-7.1089-2.2597"/><path d="m256.1133 100.124c0-3.1504 0-3.7304-.041-4.3945-.043-.7041-.209-1.0361-.8926-1.1807-.166-.042-.5176-.0625-.8086-.0625-.2266 0-.3516-.042-.3516-.1865 0-.1455.1446-.1865.4551-.1865 1.0996 0 2.4063.0615 3.0274.0615.498 0 1.8027-.0615 2.5488-.0615.3105 0 .457.041.457.1865 0 .1445-.125.1865-.332.1865-.2285 0-.3535.0205-.6016.0625-.5586.1035-.7246.4561-.7676 1.1807-.041.6641-.041 1.2441-.041 4.3945v2.9014c0 3.0059.6016 4.2705 1.6172 5.0996.9336.7666 1.8867.8496 2.5918.8496.9102 0 2.0313-.29 2.8594-1.1191 1.1406-1.1407 1.2031-3.0059 1.2031-5.1407v-2.5908c0-3.1504 0-3.7304-.043-4.3945-.041-.7041-.207-1.0361-.8906-1.1807-.166-.042-.5176-.0625-.7461-.0625-.2285 0-.3515-.042-.3515-.1865 0-.1455.1445-.1865.4336-.1865 1.0585 0 2.3632.0615 2.3847.0615.2481 0 1.5547-.0615 2.3633-.0615.2891 0 .4336.041.4336.1865 0 .1445-.1231.1865-.3731.1865-.2265 0-.3515.0205-.5996.0625-.5605.1035-.7265.4561-.7675 1.1807-.0411.6641-.0411 1.2441-.0411 4.3945v2.2178c0 2.3008-.2285 4.7461-1.9687 6.2393-1.4727 1.2636-2.9648 1.4921-4.3125 1.4921-1.0977 0-3.0879-.0625-4.6016-1.4306-1.0566-.9531-1.8437-2.4873-1.8437-5.4922v-3.0264"/><path d="m293.6484 106.9639c.043 1.6172.3125 2.1552.7266 2.3007.3516.1241.7461.1456 1.0781.1456.2266 0 .3516.041.3516.165 0 .166-.1856.208-.4766.208-1.3476 0-2.1758-.0625-2.5703-.0625-.1855 0-1.1601.0625-2.2383.0625-.2695 0-.455-.0215-.455-.208 0-.124.123-.165.33-.165.2696 0 .6426-.0215.9336-.1045.5391-.1651.6211-.7666.6426-2.5694l.1856-12.2705c0-.415.0625-.7051.2695-.7051.2285 0 .416.2696.7676.6426.248.2696 3.3984 3.6485 6.4257 6.6533 1.4082 1.4092 4.2071 4.3946 4.5606 4.7256h.1035l-.209-9.3066c-.0195-1.2637-.207-1.6582-.7031-1.8652-.3125-.1241-.8086-.1241-1.0996-.1241-.2481 0-.332-.0625-.332-.1865 0-.166.2285-.1865.539-.1865 1.0781 0 2.0742.0615 2.5078.0615.2285 0 1.0157-.0615 2.0313-.0615.2695 0 .4765.0205.4765.1865 0 .124-.123.1865-.373.1865-.207 0-.3731 0-.6211.0625-.5801.1651-.7461.6006-.7676 1.7617l-.2265 13.0782c0 .456-.084.6426-.2696.6426-.2285 0-.4765-.2276-.705-.4561-1.3067-1.2432-3.959-3.958-6.1153-6.0938-2.2578-2.2382-4.5586-4.8291-4.9316-5.2226h-.0625l.2265 8.7051"/><path d="m340.5762 100.7041c.0625 0 .123-.041.123-.1445v-.4356c0-3.1504 0-3.7304-.041-4.3945-.041-.7041-.207-1.0361-.8906-1.1807-.166-.042-.5176-.0625-.8086-.0625-.2285 0-.3516-.042-.3516-.1865 0-.1455.1446-.1865.4336-.1865 1.1211 0 2.4258.0615 2.9863.0615.4961 0 1.8028-.0615 2.6114-.0615.289 0 .4355.041.4355.1865 0 .1445-.125.1865-.373.1865-.166 0-.3535.0205-.6016.0625-.5605.1035-.7266.4561-.7676 1.1807-.041.6641-.041 1.2441-.041 4.3945v3.6485c0 1.9062 0 3.5439.1035 4.4355.0625.5801.1875 1.0361.8086 1.1191.291.0411.7461.0831 1.0567.0831.2285 0 .332.0615.332.165 0 .1455-.166.208-.4141.208-1.3476 0-2.6543-.0625-3.2343-.0625-.4766 0-1.7813.0625-2.5899.0625-.291 0-.4355-.0625-.4355-.208 0-.1035.082-.165.332-.165.3105 0 .5586-.042.7461-.0831.4141-.083.5176-.539.5996-1.1406.1035-.8701.1035-2.5078.1035-4.414v-1.8243c0-.083-.0605-.125-.123-.125h-7.918c-.0625 0-.125.0215-.125.125v1.8243c0 1.9062 0 3.5439.1035 4.4355.0625.5801.1875 1.0361.8086 1.1191.291.0411.7461.0831 1.0567.0831.2285 0 .332.0615.332.165 0 .1455-.166.208-.4141.208-1.3476 0-2.6523-.0625-3.2344-.0625-.4765 0-1.7812.0625-2.6113.0625-.2695 0-.414-.0625-.414-.208 0-.1035.082-.165.332-.165.3105 0 .5586-.042.7461-.0831.414-.083.5176-.539.6015-1.1406.1036-.8701.1036-2.5078.1036-4.414v-3.6485c0-3.1504 0-3.7304-.043-4.3945-.041-.7041-.207-1.0361-.8906-1.1807-.166-.042-.5176-.0625-.8086-.0625-.2285 0-.3516-.042-.3516-.1865 0-.1455.1445-.1865.4356-.1865 1.1191 0 2.4238.0615 2.9843.0615.4981 0 1.8028-.0615 2.6114-.0615.291 0 .4355.041.4355.1865 0 .1445-.125.1865-.373.1865-.1661 0-.3536.0205-.6016.0625-.5586.1035-.7246.4561-.7676 1.1807-.041.6641-.041 1.2441-.041 4.3945v.4356c0 .1035.0625.1445.125.1445h7.918"/><path d="m368.7422 104.373c-.1035 0-.1445.042-.1856.1661l-1.1191 2.9638c-.209.5186-.3125 1.0157-.3125 1.2647 0 .373.1875.6426.8301.6426h.3105c.2481 0 .3106.041.3106.165 0 .166-.1231.208-.3516.208-.6641 0-1.5547-.0625-2.1973-.0625-.2285 0-1.3671.0625-2.4453.0625-.2695 0-.3945-.042-.3945-.208 0-.124.084-.165.248-.165.1875 0 .4766-.0215.6426-.042.9551-.1241 1.3477-.8291 1.7617-1.8653l5.2032-13.0166c.248-.6015.373-.8291.58-.8291.1875 0 .3106.1866.5196.6631.4961 1.1397 3.8125 9.5967 5.1387 12.7471.789 1.8652 1.3886 2.1562 1.8242 2.2597.3105.0616.623.0831.8711.0831.166 0 .2695.0205.2695.165 0 .166-.1875.208-.9531.208-.7461 0-2.2598 0-3.918-.042-.373-.0205-.6211-.0205-.6211-.166 0-.124.082-.165.2891-.1865.1465-.041.291-.2276.1875-.4766l-1.6582-4.3935c-.041-.1036-.1035-.1456-.2071-.1456h-4.623m4.2285-1.0361c.1035 0 .125-.0625.1035-.125l-1.8652-5.1191c-.0215-.083-.041-.1865-.1035-.1865-.0625 0-.1035.1035-.125.1865l-1.9063 5.0986c-.0215.083 0 .1455.0821.1455h3.8144"/></g><path d="m267.9395 80.7471c-48.0787-2.3145-76.2447-2.0918-92.3179-2.7168-16.0879-.4785-20.1377-1-20.1377-1-6.3613-.8067-11.5635.0468-11.5645 1.914 0 1.8672 5.3623 3.3614 11.916 3.3067 75.3384-2.4629 150.4693 4.2011 225.9966 2.4863 6.5567-.1211 17.2774-.2246 23.8282-.2305 12.998-.0019 26.0039-.1445 39.0136-.5156 6.5664-.1875 11.8242-2.0312 11.6856-3.9961-.1406-1.9726-5.2188-2.3203-11.3262-.8594-.0039-.0449-2.5352.7442-25.9375 2.1114-23.3926 1.2383-67.7422 3.334-151.1562-.5" style="fill:#ffcb00"/><path d="m101.9429 50.6914c-1.2422.919-1.3028 3.1387-2.9971 3.9775-1.4219.7081-2.6104 1.1749-3.9111 1.5723.3134.0918.6347.1973.957.3311 1.667.6884 2.5312.5673 2.9199 2.4248.3906 1.8554-.7441 2.3867-1.8828 3.8681-1.1426 1.4854-1.5605 3.4463-3.6484 2.3809-2.0899-1.0674-2.0039-1.6475-3.627-.4873-1.6221 1.167-2.3291-1.2188-2.3291-1.2188-.0771-.0839-.1455-.1816-.2158-.2783-1.1172.4922-2.2266.8701-3.2598 1.2168l-.4463.1553c-2.3603.8008-7.4326 2.0058-10.0117 2.0781-2.6045.0703-9.1338-.6943-11.4834-1.6357-2.0166-.8067-4.5586-2.7998-7.4424-5.8174.2002 4.8945.3897 12.001.2051 16.1582-.1025 2.3633 2.0264 22.8799 3.168 35.625.5889.0508 1.1709.1035 1.7412.1533 8.3789.7705 15.0654-1.0693 21.792-1.7969 4.6045-.498 7.8135 2.0391 12.5439 1.4053 3.3555-.4502 6.9786.3594 10.3594.1172 3.3818-.2393 5.2871-6.793 4.209-10.9629-1.0684-4.123-1.4766-2.6582-1.5029-7.0059-.0225-4.0507-.295-11.0468-.4991-15.0078-.205-3.9306 1.9102-10.707 1.9102-14.541 0-4-.5488-7.7842-.5488-11.7871 0-.2842.0312-1.2344.082-1.5918-1.9531-.4863-1.7441-.4424-3.1309-.4062-1.3867.039-1.7109.1504-2.9511 1.0732" style="fill:#007dc2"/><path d="m4.9097 36.834c-.2784-.9678-.2784-1.7529 1.1787-3.542.6748-.7119 1.7842-2.4258 2.3603-2.3623 3.666-.9356 3.5664-.1572 6.4903 1.1846 1.1386-.0479.3701-2.1954 1.1777-3.5401 1.3418-1.0195 3.2988-1.4248 5.9014-1.1806 1.4052-3.9082 8.167-6.7129 10.0302-5.9004 2.2559-.3946 3.6065.3613 5.9004 1.1777 1.8594.2861 1.3369-1.8086 3.5391-1.1777 3.1064.8281 4.8516 3.0136 6.4902 5.3115 1.4668-.3086-.8935-4.501 1.1817-4.7227 3.1084-.0556 4.3584-.0341 5.3105 1.1797 1.1973.0811.8613-1.3252 1.6152-1.7021 3.959-1.0616 7.8321-.0274 11.5665.584 5.6406.9218 10.6699 2.7968 11.0117 5.8398 2.9375.5996 4.7588.4326 7.6699 2.9463 1.3975-.1885 2.5449-.4551 3.5684-.5713 4.0752-.2783 5.7187.6328 5.7988 1.4102.0918.9062 1.7832 6.4013 4.5293 6.1718 2.5195-.1933 5.4121.4825 7.6748 1.5713-.2451-1.0107-.4756-2.0224-.4756-2.9385 0-4.0234.5703-6.4238.5303-10.5136-.042-4.2002 1.7431-9.0059 1.123-13.1543-.499-3.3203.6201-4.6992-2.208-7.5254-2.0351-2.0342-5.1777-1.3418-7.6787-.9082-3.3916.5859-4.8818-.667-8.0186-1.2676-3.0214-.5771-6.5048.4141-9.5947.3555-2.5029-.0469-4.459-.2549-6.6885.9951-2.8662 1.6084-9.7988.083-12.8418.3467-3.5019.3027-10.5976 1.2812-14.0214.498-6.0196-1.3779-3.8545-2.1289-9.9922-2.1289-4.2754 0-9.918.7266-14.1621.9873-1.8672.1162-3.7227.7022-5.6045.336-1.71-.3311-2.9834-1.6592-4.792-1.6592-8.0352 0-15.0547-.0645-12.4531 10.2881 1.2597 5.0302.7929 3.3447.2099 8.4365-.4248 3.7226-.9639 11.791-.6377 19.3056h3.7207c-.6992-1.6357-1.124-3.1982.5899-4.1308" style="fill:#ffcb00"/><g style="fill:#009540"><path d="m19.9507 47.1621c8.2881 1.4229 18.7051 1.2197 24.418.5733 1.4775-.1641.8457-1.2696-.3848-1.5811-13.5664-3.4307-24.4697-3.709-25.3731-1.9697-1.0586 1.83-.7666 1.9804 1.3399 2.9775"/><path d="m15.9761 51.5186c.8623.7832 2.0957 2.4785 2.3633 2.914.1435.2334.0966.8447-.0342 1.4834.5381.2979 1.209.542 2.1592.792 2.9697.7695 6.1377 1.5 9.2988 1.3145 3.2676-.1914 6.5-.8868 9.289-1.5586 3.4502-.834 6.3262-1.791 7.8946-2.4082-.2871-1.5342-.666-1.6846-.5713-2.4737-8.6397.0088-12.3916 1.2198-21.4092.5889-6.4551-.4473-9.3887-1.5967-8.2578-1.1777-.002.2304-.291.3984-.7324.5254"/><path d="m22.3667 67.9629c.1719.6553.4082 1.1963.4082 1.6191 0 .5-3 1.833-3.835 1.833-.8349 0-1.5019.834-2.1679.168-.667-.668-.334-1.167-1.167-1.334-.834-.167-1.5.666-2.166.5-.668-.166-1.67-.166-2-.667-.3379-.5-.17-1-.3379-1.666-.166-.667-.3301-1.6699 0-2.1699.3379-.5 0-1.334.6699-1.834.668-.5 4.167-1.167 5.167-2 1.001-.835 1.167-.667 2.1699-.335 1 .335 1.667 1.168 2.334.835.667-.333.667-1 1.333-.333.667.666 1.001 1.166 1.001 1.666 0 .501-.166 1.001-.499 1.501-.0899.1357-.2149.2803-.3516.4219 11.9756 3.248 23.2529-7.7901 24.292-9.0039-.0029-.1885-.0039-.3662-.0108-.5245-.0097-.2148-.0224-.4033-.0332-.5957-.6728.3457-1.5156.711-2.5351 1.0586-1.5156.5118-8.7774 2.8614-10.6807 3.125-1.8008.2471-9.206-.0136-10.6367-.1718-1.665-.1778-3.2539-1.1807-4.7002-1.6133-.6094-.1817-.9775-.3594-1.2764-.5528-1.4384.4463-6.582.9219-7.3173.8965-.8301-.0283-3.6387-2.0332-3.6231-2.5332.0186-.5009.3731-1.1523.5664-1.9804.1221-.5176.168-.6455.1817-.67-.0489-.0449-.8106-.706-1.1143-1.2031-.3174-.5078-.4678-1.0176-.4492-1.5137.0127-.3447.1826-.6816.5068-1.0644-.0029-.0029-.0049-.0029-.0068-.0078-1.2842.8135-2.3155.497-3.9951-.0567.0683.6036.1132 1.2256.1132 1.8848 0 3.3467-.8701 9.3105-.0517 13.1621.8359 3.9229.8017 3.1953.4267 7.2451-.4238 4.584.3477 9.1123.5039 13.6885.1368 4.1055-2.8261 6.7148-1.8671 11.0566.6328 2.8702-.3467 5.709-.4805 8.5821-.3574 7.7422 11.373 6.2558 16.6777 5.5527 3.3457-.4414 5.666-1.7226 9.166-1.7422 3.1329-.0127 6.0752 1.7676 9.1123 1.4951 2.2334-.1972 4.6202-.289 7.0674-.3076 1.628-14.0156 3.8213-37.8164 4.3457-48.8711-4.9199 3.6651-15.9004 10.1211-24.7402 6.46"/></g><path d="m64.2837 41.1064c1.0537-.0742 1.8603-.8593 1.8603-.8593 0 0 2.6094.1289 3.3555.1289.7432 0 5.127-.2481 5.127-.2481l3.5175.0928c2.9161-.1875 6.25-.1396 5.2071-1.9795-1.7237-1.7715-2.3125-2.375-5.459-2.3213.0342.128-4.2969.8467-4.2969.8467l-2.2344.5137c0 0-2.4629-8.6612-7.3252-2.7051-.4033.4912-1.2392 4.0947-1.3896 4.8564-.1875.9444.585 1.75 1.6377 1.6748m24.8955 3.4805c-2.0352.2363-4.082-.3418-6.9238.5195-2.8399.8614-2.1504.7696-8.0606 1.0665-5.9052.3007-7.5371.3261-8.9707-.0577-1.4316-.3857-3.6347-.7588-4.8594-.7392-1.2246.0195-4.5214.0722-3.4863.873 1.0313.7969 3.6035 1.4473 3.6035 1.4473 0 0 7.3848 2.9414 11.0508 2.6807 3.666-.2637 5.4434-.0733 7.2705-.5059 1.8272-.4385 5.0635-.9893 6.292-.8057 1.2266.1856 3.1973-1.2617 4.0049-1.6836.8096-.4199 2.5518-1.1992 2.54-2.0166-.0136-.8134-.4257-1.0107-2.4609-.7783m-5.6055 14.8379c-.58-.1357-1.2353-.5664-1.7519-.9717-.7403.5811-1.0371 1.4561-2.4463.8174-1.4492-.6562-2.3096-.5137-2.2881-1.6348.0117-.539.0791-1.0351.1504-1.4082l-.1592-.0615c0 0-1.2881-.1406-2.7295-.2881-1.248.1719-2.6875.2364-4.4482.0606-6.5049-.334-8.2666-3.5469-14.6719-3.2559 0 0-.4541.6865-.6689 2.0947 4.6728 5.4229 7.3711 7.0342 8.5625 7.5098 1.8046.7275 7.8554 1.4893 10.288 1.4248 2.0303-.0566 6.7149-1.1035 9.1241-1.9219l.455-.1533c1.1446-.3857 2.3145-.7803 3.4405-1.3193.0127-.1006.0244-.2031.0537-.2832.1172-.3848.2783-.8174.5-1.2813-.1543.045-.3164.083-.5166.1192-1.9346.3086-1.5596.873-2.8936.5527" style="fill:#df4013"/></svg>