<svg viewBox="0 0 27 27" version="1.1" xmlns="http://www.w3.org/2000/svg"><path d="m25.7818 19.1307l-.2978.4039-5.5817-7.6889c-1.1708-1.881-4.768-4.8457-6.597-4.8457-1.9783 0-6.3533 4.1314-6.833 5.4887l-.0042.0124-5.0295 6.9283-.2202-.2987-.2184.0938.5793.7241h.3107l.0149.0514-.3551-.4504 4.7808-6.6325c-.4674 1.973-1.0571 7.0315-1.0571 7.0315h16.7229c0 0-.7916-4.927-1.6816-7.3188l5.0549 6.9818h.0125l-.2869.3579.015-.0209h.3104l.5793-.7241-.2182-.0938m-15.7432.5932c0 0 .2995-3.7355.3896-4.5324.0898-.7966 2.0678-3.4906 3.1167-3.5203 1.0491-.0294 2.6674 2.4771 3.057 3.2443.3896.7675.6292 4.8084.6292 4.8084h-7.1925"/></svg>