<svg viewBox="0 0 27 27" version="1.1" xmlns="http://www.w3.org/2000/svg"><path d="m23.266 9.7035l.002-.0021c-1.9833-.5595-3.928-1.2392-5.8221-2.0347l-.0003.0003c-.2542-.1068-.5348-.167-.8303-.167-1.1466 0-2.0769.8951-2.0769 2 0 .0598.0041.1192.0095.1777-.3279-.1129-.6795-.1777-1.0479-.1777-.3678 0-.7197.0648-1.0476.1777.0054-.0585.0091-.1179.0091-.1777 0-1.1049-.9296-2-2.0769-2-.2478 0-.4848.0439-.7052.1207l-.0012-.0016c-1.7866.6228-1.7866.6228-6.2525 2.1791l.0037.0038c-1.9982.6958-3.4294 2.5333-3.4294 4.6981 0 2.7611 2.325 4.9999 5.1922 4.9999 2.248 0 4.1562-1.3779 4.8787-3.3024l.0041.0036c.3218-.8571.5794-1.5414.7909-2.1048.5517.8424 1.5239 1.4036 2.6341 1.4036 1.152 0 2.1549-.6036 2.6942-1.498.2225.6304.436 1.2642.6307 1.9036l.0021-.0019c.6304 2.0775 2.6198 3.5963 4.9806 3.5963 2.868 0 5.1924-2.2388 5.1924-4.9999 0-2.2739-1.577-4.1896-3.734-4.7966m-15.8708 6.9176c-1.2145 1.1699-3.191 1.1699-4.4055 0-1.215-1.1696-1.215-3.0729 0-4.2428 1.2145-1.1693 3.191-1.1693 4.4055 0 1.2147 1.1699 1.2147 3.0732 0 4.2428m6.1048-3.1212c-.5727 0-1.0385-.4485-1.0385-.9998 0-.5515.4658-1 1.0385-1 .5726 0 1.0384.4485 1.0384 1 0 .5513-.4658.9998-1.0384.9998m10.5107 3.1212c-1.2147 1.1699-3.1911 1.1699-4.4057 0-1.2149-1.1696-1.2149-3.0729 0-4.2425 1.2146-1.1696 3.191-1.1696 4.4059 0 1.2143 1.1696 1.2143 3.0729-.0002 4.2425"/></svg>