<svg viewBox="0 0 27 27" version="1.1" xmlns="http://www.w3.org/2000/svg"><path d="m13.1548 4.7736c1.0428 0 1.8872-.8433 1.8872-1.8887 0-1.0431-.8439-1.8849-1.8872-1.8849-1.0439 0-1.8924.8428-1.8924 1.8849 0 1.0437.8493 1.8887 1.8924 1.8887"/><path d="m9.9616 6.3546c.0712-.2904-.1103-.5796-.3959-.6515l-1.5759-.3796c-.2945-.0667-.5857.1058-.6517.3939l-1.3222 5.4687c-.0718.2898.1064.5796.3983.6521l1.5756.3764c.2862.075.5837-.1031.6496-.3923l1.3222-5.4677"/><path d="m19 11.1983c0-.3379-.184-.6318-.4592-.7894l.0924-3.4464-.0047-.0321c-.0368-.2322-.2535-.3951-.4902-.3575-.2169.0339-.3562.2247-.3692.442l-.0842 3.163-2.4209-.5336-.7282-2.9641c-.3488-1.655-1.9316-1.6153-1.9316-1.6153-1.5412-.0386-1.9271 1.5768-1.9271 1.5768l-3.9981 16.7641c-.0137.0905-.0193.1771-.0193.2676 0 .7349.5929 1.3266 1.3285 1.3266.6006 0 1.1093-.4019 1.2716-.9475l2.2857-9.4354 2.1736 9.3794c.1411.5795.665 1.0019 1.2878 1.0019.7324 0 1.3238-.5901 1.3238-1.325 0-.0999-.0072-.1951-.0249-.2903l-2.9877-12.4608.2532-1.0987.1926.864c.1778.5626.6932.6149.6932.6149l3.1799.7228-.3327 12.4417c.0011.0111-.0023.0227-.0017.0286.0373.2374.2589.3986.4965.3617.2152-.0334.3728-.2264.3694-.4399l.332-12.4143c.295-.1481.4995-.4495.4995-.8048"/></svg>