<svg viewBox="0 0 27 27" version="1.1" xmlns="http://www.w3.org/2000/svg"><path d="m15.7776 6.8096c1.0401 0 1.8837-.8499 1.8837-1.9023 0-1.0517-.8436-1.9073-1.8837-1.9073-1.0371 0-1.8836.8561-1.8836 1.9073.0011 1.0524.8465 1.9023 1.8836 1.9023"/><path d="m15.8578 11.4357c-.2731.0067-.5689-.1328-.7837-.4768l-1.2225-1.9386-2.5234 2.5297 2.3389 1.2475c.9628.4668.8185 1.3223.8185 1.3223v5.3635c0 .6078-.4858 1.1025-1.0861 1.1025-.5999 0-1.0843-.4963-1.0843-1.1025v-4.2932l-4.0543-2.2826c-.4842-.2722-.8124-.797-.8124-1.3932 0-.4116.1484-.7869.4048-1.0686l3.981-4.0382c.4914-.566 1.1832-.4757 1.1832-.4757.8322 0 1.2704.7368 1.2704.7368l2.0661 3.2814 3.1423-.0055c1.1266 0 1.1266 1.4912 0 1.4912h-3.6385"/><path d="m20.8699 13.6034c-2.8347 0-5.1363 2.3239-5.1363 5.1978 0 2.8755 2.3018 5.1988 5.1363 5.1988 2.8291 0 5.1301-2.3244 5.1301-5.1988 0-2.8744-2.301-5.1978-5.1301-5.1978m-.0027 8.9795c-2.0607 0-3.7332-1.6925-3.7332-3.7822 0-2.087 1.6725-3.7796 3.7332-3.7796 2.0577 0 3.7334 1.6926 3.7334 3.7796 0 2.0897-1.6757 3.7822-3.7334 3.7822"/><path d="m6.1291 13.6034c-2.8275 0-5.1291 2.3251-5.1291 5.1978 0 2.8732 2.3016 5.1988 5.1291 5.1988 2.8385 0 5.1375-2.3256 5.1375-5.1988 0-2.8727-2.2994-5.1978-5.1375-5.1978m.0014 8.9795c-2.0578 0-3.7302-1.6942-3.7291-3.7822 0-2.0859 1.6713-3.7785 3.7291-3.7785 2.0619 0 3.7364 1.6926 3.7364 3.7785 0 2.088-1.6743 3.7822-3.7364 3.7822"/></svg>