<svg viewBox="0 0 27 27" version="1.1" xmlns="http://www.w3.org/2000/svg"><path d="m1.5697 12.0839h23.8606c.3231 0 .6444.2718.5874.5894l-1.3778 7.1842c-.3049 1.698-1.4124 3.1425-3.1326 3.1425h-16.0146c-1.7202 0-2.8271-1.4418-3.1326-3.1425l-1.3778-7.1842c-.0573-.3191.2643-.5894.5874-.5894m8.0792-3.0475h7.7023l-3.8512-4.0009-3.8511 4.0009m-8.6806 0h6.3555l5.5651-5.7813c.1655-.1723.3887-.2577.6111-.255.2226-.0027.4457.0827.6115.255l5.5647 5.7813h6.3558c.5325 0 .968.4369.968.9709v.0002c0 .5343-.4355.9713-.968.9713h-25.0637c-.5325 0-.9683-.437-.9683-.9713v-.0002c0-.534.4358-.9709.9683-.9709"/></svg>